<svg width="33" height="32" viewBox="0 0 33 32" fill="none" xmlns="http://www.w3.org/2000/svg">
<path d="M15.407 12.3636V13.8182H13.9409V16H15.407V22.5454H18.3392V16H20.2891L20.5383 13.8182H18.3392V12.5454C18.3392 11.9563 18.3978 11.6436 19.3141 11.6436H20.5383V9.45447H18.5738C16.2281 9.45453 15.407 10.5454 15.407 12.3636Z" fill="#02323D"/>
<path d="M16.8731 0C7.96638 0 0.746094 7.16344 0.746094 16C0.746094 24.8366 7.96638 32 16.8731 32C25.7798 32 33.0001 24.8366 33.0001 16C33.0001 7.16344 25.7798 0 16.8731 0ZM16.8731 30.5454C8.77607 30.5454 2.2122 24.0332 2.2122 16C2.2122 7.96675 8.77607 1.45456 16.8731 1.45456C24.9701 1.45456 31.534 7.96675 31.534 16C31.534 24.0332 24.9701 30.5454 16.8731 30.5454Z" fill="#02323D"/>
</svg>
