<svg width="33" height="32" viewBox="0 0 33 32" fill="none" xmlns="http://www.w3.org/2000/svg">
<path d="M16.2539 0C7.41734 0 0.253906 7.16344 0.253906 16C0.253906 24.8366 7.41734 32 16.2539 32C25.0905 32 32.2539 24.8366 32.2539 16C32.2539 7.16344 25.0905 0 16.2539 0ZM16.2539 30.5454C8.22066 30.5454 1.70847 24.0332 1.70847 16C1.70847 7.96675 8.22066 1.45456 16.2539 1.45456C24.2872 1.45456 30.7993 7.96675 30.7993 16C30.7993 24.0332 24.2872 30.5454 16.2539 30.5454Z" fill="#1D1D35"/>
<g clip-path="url(#clip0_6_5819)">
<path d="M16.5021 13.1622C14.6588 13.1622 13.1665 14.6561 13.1665 16.4978C13.1665 18.3411 14.6604 19.8334 16.5021 19.8334C18.3454 19.8334 19.8377 18.3395 19.8377 16.4978C19.8377 14.6545 18.3438 13.1622 16.5021 13.1622ZM16.5021 18.6629C15.3055 18.6629 14.337 17.6938 14.337 16.4978C14.337 15.3018 15.3061 14.3328 16.5021 14.3328C17.6981 14.3328 18.6671 15.3018 18.6671 16.4978C18.6677 17.6938 17.6986 18.6629 16.5021 18.6629Z" fill="#1D1D35"/>
<path d="M19.1803 10.0414C17.9843 9.98565 15.0219 9.98836 13.8248 10.0414C12.7729 10.0907 11.845 10.3448 11.097 11.0928C9.84683 12.343 10.0066 14.0276 10.0066 16.4981C10.0066 19.0266 9.86579 20.6722 11.097 21.9034C12.352 23.1579 14.061 22.9938 16.5023 22.9938C19.007 22.9938 19.8715 22.9954 20.7571 22.6525C21.9612 22.1851 22.8701 21.1088 22.959 19.1756C23.0153 17.979 23.012 15.0172 22.959 13.8201C22.8517 11.5381 21.627 10.1541 19.1803 10.0414ZM21.0734 21.0763C20.2539 21.8958 19.1169 21.8227 16.4866 21.8227C13.7782 21.8227 12.6922 21.8628 11.8997 21.0682C10.987 20.1598 11.1522 18.7011 11.1522 16.4894C11.1522 13.4967 10.8451 11.3414 13.8487 11.1876C14.5387 11.1632 14.7419 11.1551 16.479 11.1551L16.5034 11.1714C19.3899 11.1714 21.6546 10.8691 21.7906 13.8721C21.8215 14.5573 21.8285 14.7632 21.8285 16.4976C21.828 19.1745 21.8789 20.267 21.0734 21.0763Z" fill="#1D1D35"/>
<path d="M19.9699 13.8101C20.4004 13.8101 20.7493 13.4612 20.7493 13.0307C20.7493 12.6002 20.4004 12.2512 19.9699 12.2512C19.5394 12.2512 19.1904 12.6002 19.1904 13.0307C19.1904 13.4612 19.5394 13.8101 19.9699 13.8101Z" fill="#1D1D35"/>
</g>
<defs>
<clipPath id="clip0_6_5819">
<rect width="13" height="13" fill="white" transform="translate(10 10)"/>
</clipPath>
</defs>
</svg>
