<svg width="32" height="32" viewBox="0 0 32 32" fill="none" xmlns="http://www.w3.org/2000/svg">
<path d="M11.6362 13.0909C12.4395 13.0909 13.0908 12.4397 13.0908 11.6363C13.0908 10.833 12.4395 10.1818 11.6362 10.1818C10.8329 10.1818 10.1816 10.833 10.1816 11.6363C10.1816 12.4397 10.8329 13.0909 11.6362 13.0909Z" fill="#02323D"/>
<path d="M13.0907 13.8182H10.1816V21.8182H13.0907V13.8182Z" fill="#02323D"/>
<path d="M16 0C7.16344 0 0 7.16344 0 16C0 24.8366 7.16344 32 16 32C24.8366 32 32 24.8366 32 16C32 7.16344 24.8366 0 16 0ZM16 30.5454C7.96675 30.5454 1.45456 24.0332 1.45456 16C1.45456 7.96675 7.96675 1.45456 16 1.45456C24.0332 1.45456 30.5454 7.96675 30.5454 16C30.5454 24.0332 24.0332 30.5454 16 30.5454Z" fill="#02323D"/>
<path d="M19.8981 13.8182C17.7163 13.8182 17.4545 15.1128 17.4545 15.1128V13.8182H14.5454V21.8182H17.4545V17.4546C17.4545 17.4546 17.4545 16 18.6908 16C19.4181 16 19.6363 16.6473 19.6363 17.4546V21.8182H22.5453V17.4546C22.5453 15.1782 21.5563 13.8182 19.8981 13.8182Z" fill="#02323D"/>
</svg>
