<svg width="33" height="32" viewBox="0 0 33 32" fill="none" xmlns="http://www.w3.org/2000/svg">
<path d="M23.7874 10.4001C23.1956 10.7479 22.5487 10.9938 21.8742 11.1273C21.3009 10.5308 20.5058 10.1942 19.675 10.1964C18.0386 10.1842 16.6977 11.4821 16.6696 13.1054C16.6703 13.3308 16.6973 13.5554 16.7502 13.7746C14.3401 13.6617 12.0892 12.5477 10.5486 10.7055C10.2851 11.1461 10.1435 11.6478 10.1381 12.1601C10.1382 13.1477 10.6434 14.0679 11.4796 14.6037C11.0021 14.5882 10.5349 14.4612 10.1162 14.2327C10.1162 14.2327 10.1162 14.2327 10.1162 14.2691C10.1114 15.6877 11.124 16.9092 12.5279 17.1782C12.0853 17.2952 11.6219 17.3126 11.1718 17.2291C11.5765 18.4307 12.7025 19.2474 13.9793 19.2655C12.9163 20.0856 11.6093 20.5332 10.2628 20.5382C10.0178 20.538 9.77301 20.5234 9.52979 20.4946C10.9093 21.3604 12.5083 21.8194 14.1407 21.8182C18.7956 21.9026 22.6382 18.2271 22.7232 13.6087C22.7241 13.5598 22.7246 13.5109 22.7246 13.4619C22.7246 13.3358 22.7246 13.2097 22.7246 13.0837C23.2991 12.6659 23.7954 12.1515 24.1907 11.5637C23.6404 11.8027 23.0574 11.9596 22.4607 12.0291C23.0882 11.6647 23.5601 11.0854 23.7874 10.4001Z" fill="#02323D"/>
<path d="M16.127 0C7.22029 0 0 7.16344 0 16C0 24.8366 7.22029 32 16.127 32C25.0337 32 32.254 24.8366 32.254 16C32.254 7.16344 25.0337 0 16.127 0ZM16.127 30.5454C8.02998 30.5454 1.46611 24.0332 1.46611 16C1.46611 7.96675 8.02998 1.45456 16.127 1.45456C24.224 1.45456 30.7879 7.96675 30.7879 16C30.7879 24.0332 24.224 30.5454 16.127 30.5454Z" fill="#02323D"/>
</svg>
