<svg width="96" height="16" viewBox="0 0 96 16" fill="none" xmlns="http://www.w3.org/2000/svg">
<path d="M71.7081 14.373C71.6 14.373 71.4936 14.3467 71.3979 14.2965L67.9998 12.5101L64.6016 14.2965C64.4915 14.3544 64.3674 14.3803 64.2433 14.3713C64.1193 14.3624 64.0002 14.3189 63.8995 14.2457C63.7989 14.1726 63.7207 14.0728 63.6738 13.9576C63.6269 13.8424 63.6132 13.7163 63.6342 13.5937L64.2833 9.80986L61.5343 7.13052C61.4452 7.04367 61.3822 6.93363 61.3524 6.81286C61.3226 6.69208 61.3272 6.56538 61.3656 6.44706C61.4041 6.32875 61.4748 6.22355 61.5699 6.14334C61.665 6.06314 61.7806 6.01113 61.9037 5.99319L65.7029 5.4411L67.4018 1.99866C67.4632 1.8947 67.5506 1.80854 67.6555 1.74868C67.7603 1.68883 67.879 1.65735 67.9997 1.65735C68.1205 1.65735 68.2391 1.68883 68.344 1.74868C68.4489 1.80854 68.5363 1.8947 68.5977 1.99866L70.2966 5.44104L74.0958 5.99313C74.2189 6.01107 74.3345 6.06308 74.4296 6.14328C74.5247 6.22349 74.5954 6.32869 74.6339 6.447C74.6723 6.56532 74.6769 6.69202 74.6471 6.8128C74.6173 6.93357 74.5543 7.04361 74.4652 7.13046L71.7162 9.8098L72.3653 13.5936C72.3817 13.6893 72.377 13.7875 72.3515 13.8812C72.3261 13.9749 72.2804 14.0619 72.2179 14.1361C72.1553 14.2103 72.0772 14.27 71.9891 14.3109C71.9011 14.3518 71.8052 14.373 71.7081 14.373L71.7081 14.373Z" fill="black"/>
<path d="M51.7081 14.373C51.6 14.373 51.4936 14.3467 51.3979 14.2965L47.9998 12.5101L44.6016 14.2965C44.4915 14.3544 44.3674 14.3803 44.2433 14.3713C44.1193 14.3624 44.0002 14.3189 43.8995 14.2457C43.7989 14.1726 43.7207 14.0728 43.6738 13.9576C43.6269 13.8424 43.6132 13.7163 43.6342 13.5937L44.2833 9.80986L41.5343 7.13052C41.4452 7.04367 41.3822 6.93363 41.3524 6.81286C41.3226 6.69208 41.3272 6.56538 41.3656 6.44706C41.4041 6.32875 41.4748 6.22355 41.5699 6.14334C41.665 6.06314 41.7806 6.01113 41.9037 5.99319L45.7029 5.4411L47.4018 1.99866C47.4632 1.8947 47.5506 1.80854 47.6555 1.74868C47.7603 1.68883 47.879 1.65735 47.9997 1.65735C48.1205 1.65735 48.2391 1.68883 48.344 1.74868C48.4489 1.80854 48.5363 1.8947 48.5977 1.99866L50.2966 5.44104L54.0958 5.99313C54.2189 6.01107 54.3345 6.06308 54.4296 6.14328C54.5247 6.22349 54.5954 6.32869 54.6339 6.447C54.6723 6.56532 54.6769 6.69202 54.6471 6.8128C54.6173 6.93357 54.5543 7.04361 54.4652 7.13046L51.7162 9.8098L52.3653 13.5936C52.3817 13.6893 52.377 13.7875 52.3515 13.8812C52.3261 13.9749 52.2804 14.0619 52.2179 14.1361C52.1553 14.2103 52.0772 14.27 51.9891 14.3109C51.9011 14.3518 51.8052 14.373 51.7081 14.373L51.7081 14.373Z" fill="black"/>
<path d="M31.7081 14.373C31.6 14.373 31.4936 14.3467 31.3979 14.2965L27.9998 12.5101L24.6016 14.2965C24.4915 14.3544 24.3674 14.3803 24.2433 14.3713C24.1193 14.3624 24.0002 14.3189 23.8995 14.2457C23.7989 14.1726 23.7207 14.0728 23.6738 13.9576C23.6269 13.8424 23.6132 13.7163 23.6342 13.5937L24.2833 9.80986L21.5343 7.13052C21.4452 7.04367 21.3822 6.93363 21.3524 6.81286C21.3226 6.69208 21.3272 6.56538 21.3656 6.44706C21.4041 6.32875 21.4748 6.22355 21.5699 6.14334C21.665 6.06314 21.7806 6.01113 21.9037 5.99319L25.7029 5.4411L27.4018 1.99866C27.4632 1.8947 27.5506 1.80854 27.6555 1.74868C27.7603 1.68883 27.879 1.65735 27.9997 1.65735C28.1205 1.65735 28.2391 1.68883 28.344 1.74868C28.4489 1.80854 28.5363 1.8947 28.5977 1.99866L30.2966 5.44104L34.0958 5.99313C34.2189 6.01107 34.3345 6.06308 34.4296 6.14328C34.5247 6.22349 34.5954 6.32869 34.6339 6.447C34.6723 6.56532 34.6769 6.69202 34.6471 6.8128C34.6173 6.93357 34.5543 7.04361 34.4652 7.13046L31.7162 9.8098L32.3653 13.5936C32.3817 13.6893 32.377 13.7875 32.3515 13.8812C32.3261 13.9749 32.2804 14.0619 32.2179 14.1361C32.1553 14.2103 32.0772 14.27 31.9891 14.3109C31.9011 14.3518 31.8052 14.373 31.7081 14.373L31.7081 14.373Z" fill="black"/>
<path d="M11.7081 14.373C11.6 14.373 11.4936 14.3467 11.3979 14.2965L7.99976 12.5101L4.60164 14.2965C4.49153 14.3544 4.36742 14.3803 4.24334 14.3713C4.11926 14.3624 4.00017 14.3189 3.89952 14.2457C3.79888 14.1726 3.72069 14.0728 3.6738 13.9576C3.62691 13.8424 3.6132 13.7163 3.6342 13.5937L4.28328 9.80986L1.53426 7.13052C1.44521 7.04367 1.38222 6.93363 1.35242 6.81286C1.32263 6.69208 1.3272 6.56538 1.36564 6.44706C1.40407 6.32875 1.47483 6.22355 1.56992 6.14334C1.66501 6.06314 1.78063 6.01113 1.90373 5.99319L5.70288 5.4411L7.40176 1.99866C7.46316 1.8947 7.55061 1.80854 7.65547 1.74868C7.76034 1.68883 7.87899 1.65735 7.99974 1.65735C8.12048 1.65735 8.23914 1.68883 8.344 1.74868C8.44887 1.80854 8.53632 1.8947 8.59772 1.99866L10.2966 5.44104L14.0958 5.99313C14.2189 6.01107 14.3345 6.06308 14.4296 6.14328C14.5247 6.22349 14.5954 6.32869 14.6339 6.447C14.6723 6.56532 14.6769 6.69202 14.6471 6.8128C14.6173 6.93357 14.5543 7.04361 14.4652 7.13046L11.7162 9.8098L12.3653 13.5936C12.3817 13.6893 12.377 13.7875 12.3515 13.8812C12.3261 13.9749 12.2804 14.0619 12.2179 14.1361C12.1553 14.2103 12.0772 14.27 11.9891 14.3109C11.9011 14.3518 11.8052 14.373 11.7081 14.373L11.7081 14.373Z" fill="black"/>
<path d="M94.6668 6.73337C94.7335 6.40004 94.4668 6.00004 94.1335 6.00004L90.3335 5.46671L88.6002 2.00004C88.5335 1.86671 88.4668 1.80004 88.3335 1.73337C88.0002 1.53337 87.6002 1.66671 87.4002 2.00004L85.7335 5.46671L81.9335 6.00004C81.7335 6.00004 81.6002 6.06671 81.5335 6.20004C81.2668 6.46671 81.2668 6.86671 81.5335 7.13337L84.2668 9.80004L83.6002 13.6C83.6002 13.7334 83.6002 13.8667 83.6668 14C83.8668 14.3334 84.2668 14.4667 84.6002 14.2667L88.0002 12.4667L91.4002 14.2667C91.4668 14.3334 91.6002 14.3334 91.7335 14.3334C91.8002 14.3334 91.8002 14.3334 91.8668 14.3334C92.2002 14.2667 92.4668 13.9334 92.4002 13.5334L91.7335 9.73337L94.4668 7.06671C94.6002 7.00004 94.6668 6.86671 94.6668 6.73337ZM90.5335 9.06671C90.4002 9.20004 90.3335 9.46671 90.3335 9.66671L90.8002 12.4667L88.2668 11.1334C88.2002 11.0667 88.0668 11.0667 87.9335 11.0667V3.80004L89.2002 6.33337C89.2668 6.53337 89.4668 6.66671 89.7335 6.66671L92.5335 7.06671L90.5335 9.06671Z" fill="black"/>
</svg>
