<svg width="49" height="48" viewBox="0 0 49 48" fill="none" xmlns="http://www.w3.org/2000/svg">
<g clip-path="url(#clip0_6_3253)">
<path d="M39.1478 38.2849C39.1478 38.2888 39.1478 38.2927 39.1478 38.2976C35.2132 41.8656 29.9904 44.039 24.2616 44.039C18.5319 44.039 13.3089 41.8656 9.37451 38.2976C9.37451 38.2927 9.37451 38.2889 9.37451 38.2849C9.37451 32.3505 12.847 27.228 17.8702 24.8373C19.758 26.7202 21.9684 27.7348 24.2617 27.7348C26.556 27.7348 28.7653 26.7202 30.6542 24.8373C35.6771 27.228 39.1478 32.3504 39.1478 38.2849Z" fill="#1EA6C6"/>
<path d="M24.2618 6.09363C28.8093 6.09363 32.4962 9.77961 32.4962 14.3271C32.4962 18.8756 28.8093 25.0956 24.2618 25.0956C19.7143 25.0956 16.0273 18.8756 16.0273 14.3271C16.0273 9.77961 19.7143 6.09363 24.2618 6.09363Z" fill="#FCD09F"/>
<path d="M17.3221 22.2007C17.5745 22.5603 17.8358 22.8975 18.1057 23.2142L17.2841 23.605C14.5494 24.9061 12.2357 26.942 10.5915 29.4925C9.25434 31.5675 8.4162 33.9066 8.12479 36.345C5.15324 35.5351 2.46717 34.0333 0.25 32.0226V32.0119C0.25 26.8407 3.27617 22.377 7.65308 20.2932C9.29824 21.9344 11.224 22.8184 13.222 22.8184C14.5309 22.8184 15.8095 22.4393 16.9976 21.7161C17.1019 21.88 17.211 22.0418 17.3221 22.2007Z" fill="#EF806F"/>
<path d="M14.6634 14.3268C14.6634 16.0363 15.1078 17.9173 15.8991 19.6852C15.0717 20.2096 14.1682 20.5185 13.2219 20.5185C9.25917 20.5185 6.04688 15.0987 6.04688 11.1349C6.04688 7.17218 9.25917 3.96082 13.2219 3.96082C15.4196 3.96082 17.3874 4.94908 18.7031 6.5055C16.2597 8.24814 14.6634 11.1047 14.6634 14.3268Z" fill="#EFC59C"/>
<path d="M31.1777 22.2007C30.9253 22.5603 30.664 22.8975 30.394 23.2142L31.2156 23.605C33.9504 24.9061 36.2641 26.942 37.9082 29.4925C39.2454 31.5675 40.0836 33.9066 40.375 36.345C43.3465 35.5351 46.0326 34.0333 48.2498 32.0226V32.0119C48.2498 26.8407 45.2236 22.377 40.8467 20.2932C39.2015 21.9344 37.2758 22.8184 35.2778 22.8184C33.9689 22.8184 32.6903 22.4393 31.5022 21.7161C31.3979 21.88 31.2888 22.0418 31.1777 22.2007Z" fill="#EF806F"/>
<path d="M33.8366 14.3268C33.8366 16.0363 33.3921 17.9173 32.6008 19.6852C33.4282 20.2096 34.3317 20.5185 35.278 20.5185C39.2408 20.5185 42.4531 15.0987 42.4531 11.1349C42.4531 7.17218 39.2408 3.96082 35.278 3.96082C33.0803 3.96082 31.1125 4.94908 29.7969 6.5055C32.2402 8.24814 33.8366 11.1047 33.8366 14.3268Z" fill="#EFC59C"/>
</g>
<defs>
<clipPath id="clip0_6_3253">
<rect width="48" height="48" fill="white" transform="translate(0.25)"/>
</clipPath>
</defs>
</svg>
