<svg width="49" height="48" viewBox="0 0 49 48" fill="none" xmlns="http://www.w3.org/2000/svg">
<g clip-path="url(#clip0_6_3199)">
<path d="M20.2383 45.457C20.2383 46.8222 21.3448 47.9291 22.7104 47.9291H26.0065C27.3717 47.9291 28.4786 46.8222 28.4786 45.457V40.5128H20.2383V45.457Z" fill="#EBEBEB"/>
<path d="M16.3551 31.5777C15.6345 31.1134 14.9549 30.5871 14.3248 30.0057C13.7869 32.0742 11.7537 33.3859 9.64739 33.0238C7.54063 32.6616 6.06236 30.7468 6.24543 28.6171C6.42851 26.4874 8.21217 24.853 10.3499 24.8563C10.4759 24.8563 10.597 24.8824 10.7173 24.8933C9.93629 23.0573 9.53352 21.0829 9.53393 19.088H8.48497L7.91563 21.7963C7.8589 22.0663 7.671 22.29 7.4151 22.3922C7.15879 22.4948 6.86869 22.4622 6.64176 22.3057L4.3648 20.7361L1.8927 23.2082L3.45828 25.4847C3.6148 25.7121 3.64739 26.0022 3.54479 26.2581C3.44259 26.5144 3.21888 26.7023 2.9493 26.7586L0.244629 27.3284V30.6245L2.95251 31.1938C3.2221 31.2506 3.44581 31.4385 3.54841 31.6944C3.65061 31.9503 3.61802 32.2408 3.4615 32.4677L1.8927 34.7447L4.3648 37.2168L6.64176 35.6508C6.86869 35.4943 7.15919 35.4613 7.4155 35.5639C7.6718 35.6661 7.8597 35.8902 7.91644 36.1602L8.48497 38.8648H11.7811L12.3496 36.1561C12.4064 35.8858 12.5943 35.662 12.8506 35.5598C13.1069 35.4572 13.3974 35.4898 13.6243 35.6468L15.9013 37.2168L18.4881 34.63C18.2169 33.367 17.448 32.2665 16.3551 31.5777Z" fill="#C9DFFF"/>
<path d="M39.1909 19.088C39.1901 11.9762 34.1417 5.86559 27.1579 4.52332C20.1741 3.18104 13.2201 6.98415 10.5831 13.5889C7.946 20.1936 10.3674 27.7407 16.3549 31.5776C17.727 32.4282 18.5699 33.9206 18.59 35.5348V38.8648C18.59 40.23 19.6965 41.3369 21.0621 41.3369H27.6544C29.0196 41.3369 30.1265 40.23 30.1265 38.8648V35.6033C30.1474 33.9508 31.0073 32.4226 32.4091 31.5471C36.6395 28.8158 39.1937 24.1235 39.1909 19.088Z" fill="#FFB41F"/>
<path d="M44.2941 10.3704L46.8849 8.42744L43.9183 4.47184L41.3275 6.41483C40.7943 6.81438 40.0729 6.85341 39.4995 6.51382C38.9262 6.17422 38.6139 5.5228 38.7077 4.86333L39.1652 1.65853L34.2705 0.959229L33.813 4.16363C33.7192 4.8239 33.2368 5.36226 32.591 5.52763C31.9452 5.6934 31.2632 5.4536 30.8633 4.92007L28.9207 2.32927L24.9655 5.29587L26.9077 7.88667C27.3072 8.4202 27.3462 9.14123 27.0066 9.71459C26.6671 10.288 26.0156 10.6002 25.3562 10.5064L22.1514 10.049L21.4517 14.9437L24.6573 15.4012C25.3171 15.4953 25.8555 15.9777 26.0209 16.6235C26.1862 17.2693 25.9464 17.9513 25.4129 18.3513L22.8229 20.2943L25.7895 24.2495L28.3795 22.3073C28.9126 21.9073 29.6345 21.8679 30.2082 22.2075C30.7816 22.5471 31.0942 23.1989 31.0001 23.8588L30.5386 27.0628L35.4333 27.7625L35.8948 24.5569C35.9889 23.897 36.4714 23.359 37.1172 23.1937C37.763 23.0279 38.445 23.2681 38.8445 23.8012L40.7879 26.3912L44.7431 23.4246L42.7993 20.8346C42.3994 20.3015 42.3599 19.5797 42.6995 19.0059C43.0391 18.4325 43.6909 18.1199 44.3508 18.2145L47.5556 18.6723L48.2553 13.7776L45.0505 13.3197C44.391 13.2252 43.8531 12.7432 43.6873 12.0974C43.5219 11.452 43.7613 10.7704 44.2941 10.3704ZM34.8539 20.1285C31.668 20.1285 29.0856 17.5461 29.0856 14.3602C29.0856 11.1748 31.668 8.59201 34.8539 8.59201C38.0398 8.59201 40.6221 11.1748 40.6221 14.3602C40.6221 17.5461 38.0398 20.1285 34.8539 20.1285Z" fill="#1CC8EB"/>
<path d="M20.2383 42.985H28.4786V44.6331H20.2383V42.985Z" fill="#9E9E9E"/>
<path d="M23.5342 36.3927H25.1822V38.8648H23.5342V36.3927Z" fill="#FFAA00"/>
<path d="M25.1822 34.7446H23.5341C23.5333 32.5658 22.1898 30.6128 20.1555 29.833C16.1001 28.2473 13.2828 24.5134 12.8716 20.1784C12.4603 15.8433 14.5249 11.6463 18.2097 9.32629L19.084 10.7205C15.9247 12.7085 14.1539 16.3064 14.5063 20.023C14.8584 23.7393 17.2734 26.9404 20.7502 28.2996C23.421 29.3212 25.1842 31.885 25.1822 34.7446Z" fill="#FFAA00"/>
<path d="M40.8392 30.6245H44.9593C45.4144 30.6245 45.7834 30.9931 45.7834 31.4485C45.7834 31.9036 45.4144 32.2726 44.9593 32.2726H40.8392C40.3841 32.2726 40.0151 31.9036 40.0151 31.4485C40.0151 30.9931 40.3841 30.6245 40.8392 30.6245Z" fill="#FFAA00"/>
<path d="M39.191 35.569C39.4824 35.2194 40.0018 35.1719 40.3515 35.4632L44.0298 38.528C44.3795 38.8193 44.427 39.3388 44.1357 39.6884C43.8439 40.0381 43.3245 40.0855 42.9748 39.7942L39.2965 36.7294C38.9468 36.4381 38.8997 35.9187 39.191 35.569Z" fill="#FFAA00"/>
<path d="M35.8948 37.2167C36.3499 37.2167 36.7189 37.5852 36.7189 38.0407V42.1609C36.7189 42.616 36.3499 42.9849 35.8948 42.9849C35.4398 42.9849 35.0708 42.616 35.0708 42.1609V38.0407C35.0708 37.5852 35.4398 37.2167 35.8948 37.2167Z" fill="#FFAA00"/>
<path d="M1.06119 13.9675L6.05449 12.7202C6.49628 12.6099 6.9433 12.8783 7.05355 13.3197C7.16379 13.7611 6.89542 14.2081 6.45363 14.3184L1.46033 15.5657C1.01854 15.6759 0.57152 15.4076 0.461274 14.9662C0.351027 14.5248 0.619401 14.0778 1.06119 13.9675Z" fill="#FFAA00"/>
<path d="M2.109 5.07982C2.37335 4.70965 2.88797 4.62435 3.25814 4.8887L7.68491 8.05085C8.05548 8.3152 8.14119 8.82982 7.87684 9.19999C7.61248 9.57016 7.09787 9.65587 6.72769 9.39111L2.30092 6.22896C1.93035 5.96461 1.84465 5.44999 2.109 5.07982Z" fill="#FFAA00"/>
<path d="M9.4888 0.134377C9.92978 0.021716 10.3784 0.287676 10.4911 0.728663L11.7682 5.72397C11.8808 6.16496 11.6149 6.61399 11.1739 6.72665C10.7329 6.83931 10.2843 6.57295 10.1716 6.13237L8.89451 1.13706C8.78185 0.696072 9.04781 0.247038 9.4888 0.134377Z" fill="#FFAA00"/>
</g>
<defs>
<clipPath id="clip0_6_3199">
<rect width="48.0107" height="48" fill="white" transform="translate(0.244629)"/>
</clipPath>
</defs>
</svg>
