<svg width="49" height="48" viewBox="0 0 49 48" fill="none" xmlns="http://www.w3.org/2000/svg">
<path d="M13.7725 17.422C13.7725 17.422 13.761 17.4785 13.75 17.535C13.422 18.8025 12.46 19.8095 11.2035 20.183C10.2075 20.4885 7.9895 20.9525 7.3445 21.111C6.869 21.213 3.6665 22.039 3.3155 24.54C3.0555 26.34 2.75 28.456 2.75 28.456H15.606H28.1675L23.8725 21.104C23.228 20.958 21 20.4915 20.008 20.1855C18.759 19.8 17.7995 18.796 17.4705 17.5315C17.454 17.468 17.444 17.4305 17.444 17.4305" fill="#3C95D2"/>
<path d="M33.1354 33.5295C33.1354 33.5295 33.1464 33.5705 33.1644 33.64C33.5239 35.022 34.5724 36.119 35.9374 36.5405C37.0214 36.8745 39.4559 37.3845 40.1604 37.544C40.6694 37.6575 44.1789 38.5745 44.5674 41.2965C44.7059 42.2635 44.8559 43.312 44.9724 44.1285C45.0814 44.892 44.4884 45.573 43.7169 45.573H18.5394C17.7679 45.573 17.1749 44.8925 17.2839 44.1285C17.4004 43.312 17.5504 42.2635 17.6889 41.2965C18.0774 38.5745 21.5869 37.6575 22.0959 37.544C22.8004 37.3845 25.2354 36.8745 26.3189 36.5405C27.6839 36.119 28.7324 35.022 29.0919 33.64C29.1099 33.5705 29.1209 33.5295 29.1209 33.5295" fill="#FCC556"/>
<path d="M33.1389 33.5334C33.1389 33.5334 33.1504 33.5674 33.1614 33.6354C33.4784 34.8689 34.3384 35.8534 35.4699 36.3629L35.4779 36.3554C32.0374 38.6414 30.9059 38.6414 26.6394 36.4119C26.6394 36.4119 26.6394 36.4119 26.6279 36.4119L26.6539 36.4079C27.8534 35.9214 28.7704 34.9139 29.0869 33.6354C29.1094 33.5674 29.1209 33.5334 29.1209 33.5334H33.1389Z" fill="#E0978D"/>
<path d="M17.4424 17.4295C17.4424 17.4295 17.4539 17.4635 17.4649 17.5315C17.7589 18.6405 18.5289 19.546 19.5699 20.01L19.5664 20.014L17.6424 22.017C16.5784 23.1145 14.8134 23.1035 13.7719 21.983L11.8369 19.912L11.8404 19.908C12.7799 19.444 13.4814 18.5725 13.7529 17.5315C13.7644 17.475 13.7754 17.4185 13.7754 17.4185L17.4424 17.4295Z" fill="#E0978D"/>
<path d="M37.2085 25.5005H38.6955C39.655 25.5005 40.481 26.18 40.6655 27.1215C40.781 27.7105 40.6265 28.32 40.245 28.7835C39.8645 29.247 39.2955 29.515 38.6955 29.515C38.0905 29.515 36.48 29.515 36.48 29.515" fill="#E0978D"/>
<path d="M25.0951 25.5005C25.0951 25.5005 23.8191 25.5005 23.6081 25.5005C22.6486 25.5005 21.8226 26.18 21.6381 27.1215C21.5226 27.7105 21.6771 28.32 22.0586 28.7835C22.4391 29.247 23.0081 29.515 23.6081 29.515H25.8236" fill="#E0978D"/>
<path d="M10.1394 10.084C10.1394 10.084 8.87541 10.084 8.68241 10.084C7.80441 10.084 7.04841 10.7055 6.87941 11.567C6.77391 12.106 6.91541 12.6635 7.26441 13.088C7.61241 13.5125 8.13341 13.7575 8.68241 13.7575H10.8059" fill="#E0978D"/>
<path d="M21.0752 10.084H22.5322C23.4102 10.084 24.1662 10.7055 24.3352 11.567C24.4407 12.106 24.2992 12.6635 23.9502 13.088C23.6022 13.5125 23.0812 13.7575 22.5322 13.7575C21.9782 13.7575 20.4087 13.7575 20.4087 13.7575" fill="#E0978D"/>
<path d="M17.4442 2.433C18.6617 2.433 19.8302 2.916 20.6917 3.7775C21.5522 4.639 22.0362 5.807 22.0362 7.025V10.38C21.7532 14.1405 19.5877 17.727 15.6077 17.727C11.6277 17.727 9.46171 14.14 9.17871 10.3795C9.17871 10.3795 9.17871 8.785 9.17871 7.0245C9.17871 5.8065 9.66271 4.6385 10.5232 3.777C11.3847 2.9155 12.5527 2.4325 13.7707 2.4325C14.9647 2.433 16.2502 2.433 17.4442 2.433Z" fill="#F2B7AA"/>
<path d="M11.9341 7.32845C11.9341 7.32845 12.1396 7.43145 12.4136 7.56795C13.3061 8.01445 14.2906 8.24645 15.2881 8.24645H15.9271C16.9246 8.24645 17.9091 8.01395 18.8016 7.56795C19.0751 7.43095 19.2811 7.32845 19.2811 7.32845L22.0361 10.0834L22.0376 10.0844C22.0376 9.52995 22.0376 8.33045 22.0376 7.02895C22.0376 5.80695 21.5511 4.64095 20.6911 3.78095C19.8311 2.92095 18.6656 2.43445 17.4431 2.43445C16.2546 2.43445 14.9646 2.43445 13.7766 2.43445C12.5546 2.43445 11.3886 2.92095 10.5286 3.78095C9.66863 4.64095 9.18213 5.80645 9.18213 7.02895V10.0844L11.9341 7.32845Z" fill="#AA7750"/>
<path d="M31.9815 17.139C31.031 17.139 30.0465 17.139 29.1185 17.139C27.7945 17.139 26.5155 17.671 25.5765 18.61C24.6375 19.549 24.1055 20.828 24.1055 22.152V25.8185C24.3545 29.2475 26.0405 32.5405 29.119 33.5365C29.73 33.74 30.409 33.8535 31.1335 33.8535C31.858 33.8535 32.537 33.7405 33.148 33.548C36.215 32.5295 37.901 29.2475 38.15 25.8185C38.15 25.8185 38.15 24.0755 38.15 22.152C38.15 20.828 37.6295 19.549 36.69 18.61C36.5655 18.4855 36.4295 18.3725 36.294 18.2705" fill="#AA7750"/>
<path d="M27.5117 5.8515V13.3615C27.5117 15.2525 29.0447 16.786 30.9362 16.786H31.9802V20.0805C31.9802 20.9295 32.9937 21.3685 33.6132 20.788L37.8832 16.786H43.3262C45.2172 16.786 46.7507 15.253 46.7507 13.3615V5.8515C46.7507 3.9605 45.2177 2.427 43.3262 2.427H30.9362C29.0447 2.427 27.5117 3.9605 27.5117 5.8515Z" fill="#DDEAFB"/>
<path d="M39.9602 8.821H32.0382C31.6322 8.821 31.3027 8.4915 31.3027 8.085C31.3027 7.6785 31.6322 7.349 32.0382 7.349H39.9602C40.3662 7.349 40.6957 7.6785 40.6957 8.085C40.6957 8.492 40.3662 8.821 39.9602 8.821Z" fill="#467B9E"/>
<path d="M36.5652 12.216H32.0387C31.6327 12.216 31.3032 11.8865 31.3032 11.48C31.3032 11.0735 31.6327 10.744 32.0387 10.744H36.5652C36.9712 10.744 37.3007 11.0735 37.3007 11.48C37.3007 11.887 36.9712 12.216 36.5652 12.216Z" fill="#467B9E"/>
</svg>
