<svg width="49" height="48" viewBox="0 0 49 48" fill="none" xmlns="http://www.w3.org/2000/svg">
<g clip-path="url(#clip0_6_3183)">
<path d="M8.09033 28.34H1.89661C1.21143 28.34 0.65625 28.8951 0.65625 29.5803V47.9927H9.33069V29.5803C9.33069 28.8951 8.77515 28.34 8.09033 28.34Z" fill="#49C3E0"/>
<path d="M4.79407 28.34H1.89661C1.21143 28.34 0.65625 28.8951 0.65625 29.5803V47.9923H3.55371V29.5803C3.55371 28.8951 4.10889 28.34 4.79407 28.34Z" fill="#00A5C6"/>
<path d="M21.1987 23.4825H15.005C14.3198 23.4825 13.7646 24.0377 13.7646 24.7229V47.9927H22.4391V24.7229C22.4391 24.0377 21.8835 23.4825 21.1987 23.4825Z" fill="#3AC7B4"/>
<path d="M17.9025 23.4825H15.005C14.3198 23.4825 13.7646 24.0377 13.7646 24.7229V47.9927H16.6621V24.7229C16.6621 24.0377 17.2173 23.4825 17.9025 23.4825Z" fill="#00AD94"/>
<path d="M34.3071 18.6251H28.1134C27.4286 18.6251 26.873 19.1803 26.873 19.8655V47.9923H35.5475V19.8655C35.5475 19.1803 34.9923 18.6251 34.3071 18.6251Z" fill="#FFCD38"/>
<path d="M31.0109 18.6251H28.1134C27.4286 18.6251 26.873 19.1807 26.873 19.8655V47.9927H29.7705V19.8655C29.7705 19.1803 30.3261 18.6251 31.0109 18.6251Z" fill="#E7B835"/>
<path d="M47.4161 13.7677H41.2224C40.5376 13.7677 39.9824 14.3229 39.9824 15.0081V47.9923H48.6565V15.0081C48.6565 14.3229 48.1013 13.7677 47.4161 13.7677Z" fill="#FF8C57"/>
<path d="M44.1198 13.7677H41.2223C40.5375 13.7677 39.9819 14.3229 39.9819 15.0081V47.9927H42.8794V15.0081C42.8794 14.3229 43.4349 13.7677 44.1198 13.7677Z" fill="#EC6A34"/>
<path d="M46.4258 0.465424L38.5892 0.187836C37.9414 0.165131 37.5448 0.891328 37.9147 1.42416L39.1788 3.2435C34.9227 5.79343 21.3033 12.962 2.75 12.962V18.1666C15.3228 18.1666 25.7092 15.0527 32.2084 12.4405C36.9633 10.5293 40.3723 8.61691 42.1547 7.52817L43.2756 9.14206C43.6455 9.67453 44.4647 9.55661 44.6694 8.94138L47.145 1.50107C47.3109 1.00229 46.9509 0.484101 46.4258 0.465424Z" fill="#DA5B65"/>
</g>
<defs>
<clipPath id="clip0_6_3183">
<rect width="48" height="48" fill="white" transform="translate(0.75)"/>
</clipPath>
</defs>
</svg>
