<svg width="152" height="22" viewBox="0 0 152 22" fill="none" xmlns="http://www.w3.org/2000/svg">
<path d="M85.793 -0.000135929H99.3365C100.27 0.0741884 101.173 0.423513 101.898 1.02554C102.913 1.85054 103.542 3.14378 103.55 4.45933V16.4999C103.55 17.3174 103.594 18.1647 103.306 18.9526C102.72 20.6992 100.995 21.9776 99.1514 21.9924H87.1554C86.4224 21.985 85.667 22.0444 84.9562 21.8363C83.5122 21.4573 82.3052 20.2979 81.8535 18.8708C81.5648 18.0383 81.6462 17.1465 81.6388 16.2769V4.45933C81.6462 3.285 82.1349 2.13297 82.9717 1.30797C83.7196 0.549864 84.7415 0.103918 85.793 -0.000135929ZM86.3557 4.76405V17.2208H98.7736V4.75663C94.6343 4.76405 90.495 4.76405 86.3557 4.76405ZM7.09388 -0.00756836H3.3396C2.68057 0.133647 2.05855 0.44581 1.55503 0.891756C1.22921 1.18905 0.844156 1.41203 0.57758 1.76878C0.207337 2.21473 0.0444292 2.80189 0 3.37419V3.90933C2.37697 5.15797 4.76134 6.37689 7.13089 7.64041C7.13089 7.18703 7.11609 6.73364 7.10128 6.28027C7.09388 4.18433 7.10128 2.08838 7.09388 -0.00756836Z" fill="black"/>
<path d="M32.2559 0H45.7402C46.7768 0.0668919 47.7987 0.490541 48.5614 1.20405C49.4648 2.02905 50.0054 3.23311 50.0128 4.45946V22H45.2366V14.9095C41.0973 14.902 36.9653 14.9169 32.826 14.902C32.8112 17.2655 32.826 19.6365 32.8187 22H28.1018C28.0943 16.173 28.1018 10.3534 28.1018 4.52635C28.0943 3.32973 28.583 2.13311 29.4346 1.29325C30.1825 0.542567 31.2044 0.104054 32.2559 0ZM32.8187 4.76419C32.826 6.55541 32.8112 8.34662 32.826 10.1378C36.9653 10.1304 41.0973 10.1378 45.2366 10.1378V4.76419H32.8187ZM-0.0219727 4.42973V16.9088C3.873 14.8203 7.78277 12.7541 11.6852 10.673C7.78277 8.58445 3.873 6.51825 -0.0219727 4.42973Z" fill="black"/>
<path d="M53.4635 0H58.3286C60.8092 2.95811 63.2824 5.92364 65.7557 8.88919C68.2289 5.92364 70.6873 2.95811 73.1605 0H78.0551V22H73.3086V7.24662C70.7835 10.2493 68.3029 13.2892 65.763 16.2845L58.1879 7.27635V22H53.4783C53.4561 14.6642 53.4635 7.33581 53.4635 0ZM7.10156 6.35473H11.7148V10.1527C10.1894 9.32027 8.65659 8.49527 7.13119 7.65541C7.13119 7.21689 7.11637 6.78581 7.10156 6.35473Z" fill="black"/>
<path d="M105.734 0H111.37C113.672 2.88378 115.953 5.78244 118.249 8.67364C120.537 5.78986 122.825 2.89865 125.098 0H130.792C127.697 4.18445 124.617 8.38378 121.529 12.5756C121.24 12.9994 120.9 13.3858 120.633 13.8244C120.597 16.5445 120.633 19.2723 120.619 22H115.872V13.9655C115.879 13.8466 115.85 13.7352 115.768 13.6459C114.028 11.3047 112.295 8.96352 110.555 6.6223C108.941 4.4223 107.349 2.2 105.734 0ZM8.05679 13.0662C9.27119 12.4865 10.493 11.9142 11.7074 11.3345V14.2331H7.10156C7.11637 13.9953 7.13859 13.7575 7.14599 13.5196C7.44219 13.3486 7.75319 13.2149 8.05679 13.0662Z" fill="black"/>
<path d="M131.51 0H151.8V4.73446C151.482 4.77905 151.155 4.76419 150.837 4.76419H136.294V8.61419C140.441 8.61419 144.595 8.60675 148.742 8.61419C148.734 10.2047 148.742 11.7878 148.742 13.3784C144.595 13.3858 140.441 13.3784 136.294 13.3784V17.2284H151.778V21.9925H131.518C131.51 14.6642 131.51 7.32838 131.51 0ZM7.09388 22.0149C7.10128 19.4433 7.08646 16.8791 7.10128 14.3075C7.11609 14.0547 7.13831 13.802 7.14571 13.5419C4.77614 14.9095 2.38437 16.2325 0 17.5852V18.1723C0.214742 20.0675 1.79938 21.7175 3.66542 22.0223H7.09388V22.0149Z" fill="black"/>
<path d="M23.4662 1.86555C23.1255 1.38986 22.6146 1.08513 22.1629 0.720945C21.5779 0.297297 20.8745 0.052027 20.1636 0H16.6833V6.35473H12.5217C12.5144 7.61825 12.5217 8.88175 12.5217 10.1527C16.3797 8.10878 20.2377 6.05744 24.0956 4.00608C24.1252 3.24797 23.9401 2.46756 23.4662 1.86555ZM16.8166 8.47297C19.238 7.18716 21.652 5.89392 24.0734 4.60811C24.0808 8.69595 24.0734 12.7912 24.0734 16.8791C20.2377 14.8351 16.4019 12.7912 12.5588 10.7547C13.9657 9.96689 15.3948 9.23108 16.8166 8.47297ZM12.5144 11.3345C16.3723 13.3784 20.2228 15.4297 24.0808 17.4736C24.2363 19.6291 22.511 21.7994 20.3339 21.9628C19.1121 21.9852 17.8977 21.9628 16.6759 21.9703V14.2256C15.2912 14.2256 13.9064 14.2183 12.5144 14.2331C12.5069 13.2744 12.5217 12.3006 12.5144 11.3345Z" fill="black"/>
</svg>
