<svg width="152" height="22" viewBox="0 0 152 22" fill="none" xmlns="http://www.w3.org/2000/svg">
<path d="M131.51 0H151.8V4.73446C151.482 4.77905 151.155 4.76419 150.837 4.76419H136.294V8.61419C140.441 8.61419 144.595 8.60675 148.742 8.61419C148.734 10.2047 148.742 11.7878 148.742 13.3784C144.595 13.3858 140.441 13.3784 136.294 13.3784V17.2284H151.778V21.9925H131.518C131.51 14.6642 131.51 7.32838 131.51 0ZM7.09388 22.0149C7.10128 19.4433 7.08646 16.8791 7.10128 14.3075C7.11609 14.0547 7.13831 13.802 7.14571 13.5419C4.77614 14.9095 2.38437 16.2325 0 17.5851V18.1723C0.214742 20.0675 1.79938 21.7175 3.66542 22.0223H7.09388V22.0149Z" fill="white"/>
</svg>
